<mxfile host="app.diagrams.net" modified="2023-12-02T19:12:15.290Z" agent="Mozilla/5.0 (Windows NT 10.0; Win64; x64) AppleWebKit/537.36 (KHTML, like Gecko) Chrome/119.0.0.0 Safari/537.36" etag="7c-m6K1-AxYT_nI7ti1-" version="22.1.5" type="google">
  <diagram name="Trang-1" id="VGDVJF5gW8uE5xd4Rh-o">
    <mxGraphModel grid="1" page="1" gridSize="10" guides="1" tooltips="1" connect="1" arrows="1" fold="1" pageScale="1" pageWidth="827" pageHeight="1169" math="0" shadow="0">
      <root>
        <mxCell id="0" />
        <mxCell id="1" parent="0" />
        <mxCell id="Pf5I1L1zVMzR1r-fhsG0-1" value="Admin" style="shape=umlActor;verticalLabelPosition=bottom;verticalAlign=top;html=1;outlineConnect=0;" vertex="1" parent="1">
          <mxGeometry x="750" y="200" width="30" height="60" as="geometry" />
        </mxCell>
        <mxCell id="Pf5I1L1zVMzR1r-fhsG0-2" value="Người dùng" style="shape=umlActor;verticalLabelPosition=bottom;verticalAlign=top;html=1;outlineConnect=0;" vertex="1" parent="1">
          <mxGeometry x="80" y="200" width="30" height="60" as="geometry" />
        </mxCell>
        <mxCell id="Pf5I1L1zVMzR1r-fhsG0-7" value="Tìm kiếm" style="ellipse;whiteSpace=wrap;html=1;" vertex="1" parent="1">
          <mxGeometry x="190" y="40" width="70" height="40" as="geometry" />
        </mxCell>
        <mxCell id="Pf5I1L1zVMzR1r-fhsG0-8" value="Tìm kiếm" style="ellipse;whiteSpace=wrap;html=1;" vertex="1" parent="1">
          <mxGeometry x="190" y="40" width="70" height="40" as="geometry" />
        </mxCell>
        <mxCell id="Pf5I1L1zVMzR1r-fhsG0-9" value="tài khoản" style="ellipse;whiteSpace=wrap;html=1;" vertex="1" parent="1">
          <mxGeometry x="190" y="90" width="70" height="40" as="geometry" />
        </mxCell>
        <mxCell id="Pf5I1L1zVMzR1r-fhsG0-11" value="bình luận" style="ellipse;whiteSpace=wrap;html=1;" vertex="1" parent="1">
          <mxGeometry x="190" y="330" width="70" height="40" as="geometry" />
        </mxCell>
        <mxCell id="Pf5I1L1zVMzR1r-fhsG0-12" value="sản phẩm" style="ellipse;whiteSpace=wrap;html=1;" vertex="1" parent="1">
          <mxGeometry x="190" y="210" width="70" height="40" as="geometry" />
        </mxCell>
        <mxCell id="Pf5I1L1zVMzR1r-fhsG0-13" value="danh mục" style="ellipse;whiteSpace=wrap;html=1;" vertex="1" parent="1">
          <mxGeometry x="190" y="150" width="70" height="40" as="geometry" />
        </mxCell>
        <mxCell id="Pf5I1L1zVMzR1r-fhsG0-14" value="cập nhật tài khoản" style="ellipse;whiteSpace=wrap;html=1;" vertex="1" parent="1">
          <mxGeometry x="290" y="110" width="70" height="40" as="geometry" />
        </mxCell>
        <mxCell id="Pf5I1L1zVMzR1r-fhsG0-15" value="chi tiết sản phẩm" style="ellipse;whiteSpace=wrap;html=1;" vertex="1" parent="1">
          <mxGeometry x="190" y="270" width="70" height="40" as="geometry" />
        </mxCell>
        <mxCell id="Pf5I1L1zVMzR1r-fhsG0-16" value="quên mật khẩu" style="ellipse;whiteSpace=wrap;html=1;" vertex="1" parent="1">
          <mxGeometry x="290" y="60" width="70" height="40" as="geometry" />
        </mxCell>
        <mxCell id="Pf5I1L1zVMzR1r-fhsG0-19" value="" style="endArrow=classic;html=1;rounded=0;exitX=0.96;exitY=0.68;exitDx=0;exitDy=0;exitPerimeter=0;entryX=0;entryY=0.5;entryDx=0;entryDy=0;" edge="1" parent="1" source="Pf5I1L1zVMzR1r-fhsG0-9" target="Pf5I1L1zVMzR1r-fhsG0-16">
          <mxGeometry width="50" height="50" relative="1" as="geometry">
            <mxPoint x="390" y="270" as="sourcePoint" />
            <mxPoint x="440" y="220" as="targetPoint" />
          </mxGeometry>
        </mxCell>
        <mxCell id="Pf5I1L1zVMzR1r-fhsG0-20" value="" style="endArrow=classic;html=1;rounded=0;entryX=0;entryY=0.5;entryDx=0;entryDy=0;" edge="1" parent="1" source="Pf5I1L1zVMzR1r-fhsG0-9" target="Pf5I1L1zVMzR1r-fhsG0-14">
          <mxGeometry width="50" height="50" relative="1" as="geometry">
            <mxPoint x="260" y="120" as="sourcePoint" />
            <mxPoint x="440" y="220" as="targetPoint" />
          </mxGeometry>
        </mxCell>
        <mxCell id="Pf5I1L1zVMzR1r-fhsG0-21" value="giỏ hàng" style="ellipse;whiteSpace=wrap;html=1;" vertex="1" parent="1">
          <mxGeometry x="190" y="430" width="70" height="40" as="geometry" />
        </mxCell>
        <mxCell id="Pf5I1L1zVMzR1r-fhsG0-22" value="liên hệ" style="ellipse;whiteSpace=wrap;html=1;" vertex="1" parent="1">
          <mxGeometry x="190" y="380" width="70" height="40" as="geometry" />
        </mxCell>
        <mxCell id="Pf5I1L1zVMzR1r-fhsG0-23" value="mua hàng" style="ellipse;whiteSpace=wrap;html=1;" vertex="1" parent="1">
          <mxGeometry x="190" y="480" width="70" height="40" as="geometry" />
        </mxCell>
        <mxCell id="Pf5I1L1zVMzR1r-fhsG0-24" value="tìm kiếm" style="ellipse;whiteSpace=wrap;html=1;" vertex="1" parent="1">
          <mxGeometry x="520" y="130" width="70" height="40" as="geometry" />
        </mxCell>
        <mxCell id="Pf5I1L1zVMzR1r-fhsG0-25" value="thanh toán" style="ellipse;whiteSpace=wrap;html=1;" vertex="1" parent="1">
          <mxGeometry x="190" y="-20" width="70" height="40" as="geometry" />
        </mxCell>
        <mxCell id="Pf5I1L1zVMzR1r-fhsG0-26" value="quản lý danh mục" style="ellipse;whiteSpace=wrap;html=1;" vertex="1" parent="1">
          <mxGeometry x="630" y="20" width="70" height="40" as="geometry" />
        </mxCell>
        <mxCell id="Pf5I1L1zVMzR1r-fhsG0-28" value="" style="endArrow=classic;html=1;rounded=0;exitX=1;exitY=0.3333333333333333;exitDx=0;exitDy=0;exitPerimeter=0;entryX=0;entryY=1;entryDx=0;entryDy=0;" edge="1" parent="1" source="Pf5I1L1zVMzR1r-fhsG0-2" target="Pf5I1L1zVMzR1r-fhsG0-25">
          <mxGeometry width="50" height="50" relative="1" as="geometry">
            <mxPoint x="390" y="270" as="sourcePoint" />
            <mxPoint x="440" y="220" as="targetPoint" />
          </mxGeometry>
        </mxCell>
        <mxCell id="Pf5I1L1zVMzR1r-fhsG0-29" value="" style="endArrow=classic;html=1;rounded=0;exitX=1;exitY=0.3333333333333333;exitDx=0;exitDy=0;exitPerimeter=0;entryX=0;entryY=1;entryDx=0;entryDy=0;" edge="1" parent="1" source="Pf5I1L1zVMzR1r-fhsG0-2" target="Pf5I1L1zVMzR1r-fhsG0-8">
          <mxGeometry width="50" height="50" relative="1" as="geometry">
            <mxPoint x="390" y="270" as="sourcePoint" />
            <mxPoint x="440" y="220" as="targetPoint" />
          </mxGeometry>
        </mxCell>
        <mxCell id="Pf5I1L1zVMzR1r-fhsG0-30" value="" style="endArrow=classic;html=1;rounded=0;exitX=1;exitY=0.3333333333333333;exitDx=0;exitDy=0;exitPerimeter=0;entryX=0;entryY=1;entryDx=0;entryDy=0;" edge="1" parent="1" source="Pf5I1L1zVMzR1r-fhsG0-2" target="Pf5I1L1zVMzR1r-fhsG0-9">
          <mxGeometry width="50" height="50" relative="1" as="geometry">
            <mxPoint x="390" y="270" as="sourcePoint" />
            <mxPoint x="440" y="220" as="targetPoint" />
          </mxGeometry>
        </mxCell>
        <mxCell id="Pf5I1L1zVMzR1r-fhsG0-31" value="" style="endArrow=classic;html=1;rounded=0;entryX=0;entryY=1;entryDx=0;entryDy=0;" edge="1" parent="1" target="Pf5I1L1zVMzR1r-fhsG0-13">
          <mxGeometry width="50" height="50" relative="1" as="geometry">
            <mxPoint x="110" y="220" as="sourcePoint" />
            <mxPoint x="440" y="220" as="targetPoint" />
          </mxGeometry>
        </mxCell>
        <mxCell id="Pf5I1L1zVMzR1r-fhsG0-32" value="" style="endArrow=classic;html=1;rounded=0;exitX=1;exitY=0.3333333333333333;exitDx=0;exitDy=0;exitPerimeter=0;entryX=0;entryY=0.5;entryDx=0;entryDy=0;" edge="1" parent="1" source="Pf5I1L1zVMzR1r-fhsG0-2" target="Pf5I1L1zVMzR1r-fhsG0-12">
          <mxGeometry width="50" height="50" relative="1" as="geometry">
            <mxPoint x="390" y="270" as="sourcePoint" />
            <mxPoint x="440" y="220" as="targetPoint" />
          </mxGeometry>
        </mxCell>
        <mxCell id="Pf5I1L1zVMzR1r-fhsG0-33" value="" style="endArrow=classic;html=1;rounded=0;exitX=1;exitY=0.3333333333333333;exitDx=0;exitDy=0;exitPerimeter=0;entryX=0;entryY=0.5;entryDx=0;entryDy=0;" edge="1" parent="1" source="Pf5I1L1zVMzR1r-fhsG0-2" target="Pf5I1L1zVMzR1r-fhsG0-15">
          <mxGeometry width="50" height="50" relative="1" as="geometry">
            <mxPoint x="390" y="270" as="sourcePoint" />
            <mxPoint x="440" y="220" as="targetPoint" />
          </mxGeometry>
        </mxCell>
        <mxCell id="Pf5I1L1zVMzR1r-fhsG0-34" value="" style="endArrow=classic;html=1;rounded=0;exitX=1;exitY=0.3333333333333333;exitDx=0;exitDy=0;exitPerimeter=0;entryX=0;entryY=0.5;entryDx=0;entryDy=0;" edge="1" parent="1" source="Pf5I1L1zVMzR1r-fhsG0-2" target="Pf5I1L1zVMzR1r-fhsG0-11">
          <mxGeometry width="50" height="50" relative="1" as="geometry">
            <mxPoint x="390" y="270" as="sourcePoint" />
            <mxPoint x="440" y="220" as="targetPoint" />
          </mxGeometry>
        </mxCell>
        <mxCell id="Pf5I1L1zVMzR1r-fhsG0-35" value="" style="endArrow=classic;html=1;rounded=0;exitX=1;exitY=0.3333333333333333;exitDx=0;exitDy=0;exitPerimeter=0;entryX=0;entryY=0.5;entryDx=0;entryDy=0;" edge="1" parent="1" source="Pf5I1L1zVMzR1r-fhsG0-2" target="Pf5I1L1zVMzR1r-fhsG0-22">
          <mxGeometry width="50" height="50" relative="1" as="geometry">
            <mxPoint x="390" y="270" as="sourcePoint" />
            <mxPoint x="440" y="220" as="targetPoint" />
          </mxGeometry>
        </mxCell>
        <mxCell id="Pf5I1L1zVMzR1r-fhsG0-36" value="" style="endArrow=classic;html=1;rounded=0;exitX=1;exitY=0.3333333333333333;exitDx=0;exitDy=0;exitPerimeter=0;entryX=0;entryY=0.5;entryDx=0;entryDy=0;" edge="1" parent="1" source="Pf5I1L1zVMzR1r-fhsG0-2" target="Pf5I1L1zVMzR1r-fhsG0-21">
          <mxGeometry width="50" height="50" relative="1" as="geometry">
            <mxPoint x="390" y="270" as="sourcePoint" />
            <mxPoint x="440" y="220" as="targetPoint" />
          </mxGeometry>
        </mxCell>
        <mxCell id="Pf5I1L1zVMzR1r-fhsG0-37" value="" style="endArrow=classic;html=1;rounded=0;exitX=1;exitY=0.3333333333333333;exitDx=0;exitDy=0;exitPerimeter=0;entryX=0;entryY=0.5;entryDx=0;entryDy=0;" edge="1" parent="1" source="Pf5I1L1zVMzR1r-fhsG0-2" target="Pf5I1L1zVMzR1r-fhsG0-23">
          <mxGeometry width="50" height="50" relative="1" as="geometry">
            <mxPoint x="390" y="270" as="sourcePoint" />
            <mxPoint x="440" y="220" as="targetPoint" />
          </mxGeometry>
        </mxCell>
        <mxCell id="Pf5I1L1zVMzR1r-fhsG0-38" value="xóa" style="ellipse;whiteSpace=wrap;html=1;" vertex="1" parent="1">
          <mxGeometry x="520" y="80" width="70" height="40" as="geometry" />
        </mxCell>
        <mxCell id="Pf5I1L1zVMzR1r-fhsG0-39" value="sửa" style="ellipse;whiteSpace=wrap;html=1;" vertex="1" parent="1">
          <mxGeometry x="520" y="30" width="70" height="40" as="geometry" />
        </mxCell>
        <mxCell id="Pf5I1L1zVMzR1r-fhsG0-40" value="thêm" style="ellipse;whiteSpace=wrap;html=1;" vertex="1" parent="1">
          <mxGeometry x="520" y="-20" width="70" height="40" as="geometry" />
        </mxCell>
        <mxCell id="Pf5I1L1zVMzR1r-fhsG0-42" value="quản lý sản phẩm" style="ellipse;whiteSpace=wrap;html=1;" vertex="1" parent="1">
          <mxGeometry x="630" y="230" width="70" height="40" as="geometry" />
        </mxCell>
        <mxCell id="Pf5I1L1zVMzR1r-fhsG0-44" value="" style="endArrow=classic;html=1;rounded=0;entryX=1;entryY=1;entryDx=0;entryDy=0;exitX=0;exitY=0.5;exitDx=0;exitDy=0;" edge="1" parent="1" source="Pf5I1L1zVMzR1r-fhsG0-26" target="Pf5I1L1zVMzR1r-fhsG0-40">
          <mxGeometry width="50" height="50" relative="1" as="geometry">
            <mxPoint x="660" y="80" as="sourcePoint" />
            <mxPoint x="440" y="220" as="targetPoint" />
          </mxGeometry>
        </mxCell>
        <mxCell id="Pf5I1L1zVMzR1r-fhsG0-46" value="" style="endArrow=classic;html=1;rounded=0;exitX=0;exitY=0.5;exitDx=0;exitDy=0;entryX=1;entryY=0.5;entryDx=0;entryDy=0;" edge="1" parent="1" source="Pf5I1L1zVMzR1r-fhsG0-26" target="Pf5I1L1zVMzR1r-fhsG0-39">
          <mxGeometry width="50" height="50" relative="1" as="geometry">
            <mxPoint x="390" y="270" as="sourcePoint" />
            <mxPoint x="440" y="220" as="targetPoint" />
          </mxGeometry>
        </mxCell>
        <mxCell id="Pf5I1L1zVMzR1r-fhsG0-47" value="" style="endArrow=classic;html=1;rounded=0;exitX=0;exitY=0.5;exitDx=0;exitDy=0;entryX=1;entryY=0.5;entryDx=0;entryDy=0;" edge="1" parent="1" source="Pf5I1L1zVMzR1r-fhsG0-26" target="Pf5I1L1zVMzR1r-fhsG0-38">
          <mxGeometry width="50" height="50" relative="1" as="geometry">
            <mxPoint x="390" y="270" as="sourcePoint" />
            <mxPoint x="440" y="220" as="targetPoint" />
          </mxGeometry>
        </mxCell>
        <mxCell id="Pf5I1L1zVMzR1r-fhsG0-48" value="" style="endArrow=classic;html=1;rounded=0;exitX=0;exitY=0.5;exitDx=0;exitDy=0;entryX=1;entryY=0.5;entryDx=0;entryDy=0;" edge="1" parent="1" source="Pf5I1L1zVMzR1r-fhsG0-26" target="Pf5I1L1zVMzR1r-fhsG0-24">
          <mxGeometry width="50" height="50" relative="1" as="geometry">
            <mxPoint x="390" y="270" as="sourcePoint" />
            <mxPoint x="440" y="220" as="targetPoint" />
          </mxGeometry>
        </mxCell>
        <mxCell id="Pf5I1L1zVMzR1r-fhsG0-49" value="tìm kiếm" style="ellipse;whiteSpace=wrap;html=1;" vertex="1" parent="1">
          <mxGeometry x="520" y="350" width="70" height="40" as="geometry" />
        </mxCell>
        <mxCell id="Pf5I1L1zVMzR1r-fhsG0-50" value="xóa" style="ellipse;whiteSpace=wrap;html=1;" vertex="1" parent="1">
          <mxGeometry x="520" y="300" width="70" height="40" as="geometry" />
        </mxCell>
        <mxCell id="Pf5I1L1zVMzR1r-fhsG0-51" value="sửa" style="ellipse;whiteSpace=wrap;html=1;" vertex="1" parent="1">
          <mxGeometry x="520" y="250" width="70" height="40" as="geometry" />
        </mxCell>
        <mxCell id="Pf5I1L1zVMzR1r-fhsG0-52" value="thêm" style="ellipse;whiteSpace=wrap;html=1;" vertex="1" parent="1">
          <mxGeometry x="520" y="200" width="70" height="40" as="geometry" />
        </mxCell>
        <mxCell id="Pf5I1L1zVMzR1r-fhsG0-53" value="" style="endArrow=classic;html=1;rounded=0;exitX=0;exitY=0.5;exitDx=0;exitDy=0;entryX=1;entryY=0.5;entryDx=0;entryDy=0;" edge="1" parent="1" source="Pf5I1L1zVMzR1r-fhsG0-42" target="Pf5I1L1zVMzR1r-fhsG0-52">
          <mxGeometry width="50" height="50" relative="1" as="geometry">
            <mxPoint x="390" y="270" as="sourcePoint" />
            <mxPoint x="440" y="220" as="targetPoint" />
          </mxGeometry>
        </mxCell>
        <mxCell id="Pf5I1L1zVMzR1r-fhsG0-54" value="" style="endArrow=classic;html=1;rounded=0;exitX=0;exitY=0.5;exitDx=0;exitDy=0;entryX=1;entryY=0.5;entryDx=0;entryDy=0;" edge="1" parent="1" source="Pf5I1L1zVMzR1r-fhsG0-42" target="Pf5I1L1zVMzR1r-fhsG0-51">
          <mxGeometry width="50" height="50" relative="1" as="geometry">
            <mxPoint x="390" y="270" as="sourcePoint" />
            <mxPoint x="440" y="220" as="targetPoint" />
          </mxGeometry>
        </mxCell>
        <mxCell id="Pf5I1L1zVMzR1r-fhsG0-55" value="" style="endArrow=classic;html=1;rounded=0;exitX=0;exitY=0.5;exitDx=0;exitDy=0;entryX=1;entryY=0.5;entryDx=0;entryDy=0;" edge="1" parent="1" source="Pf5I1L1zVMzR1r-fhsG0-42" target="Pf5I1L1zVMzR1r-fhsG0-50">
          <mxGeometry width="50" height="50" relative="1" as="geometry">
            <mxPoint x="390" y="270" as="sourcePoint" />
            <mxPoint x="440" y="220" as="targetPoint" />
          </mxGeometry>
        </mxCell>
        <mxCell id="Pf5I1L1zVMzR1r-fhsG0-56" value="" style="endArrow=classic;html=1;rounded=0;exitX=0;exitY=0.5;exitDx=0;exitDy=0;entryX=1;entryY=0.5;entryDx=0;entryDy=0;" edge="1" parent="1" source="Pf5I1L1zVMzR1r-fhsG0-42" target="Pf5I1L1zVMzR1r-fhsG0-49">
          <mxGeometry width="50" height="50" relative="1" as="geometry">
            <mxPoint x="390" y="270" as="sourcePoint" />
            <mxPoint x="440" y="220" as="targetPoint" />
          </mxGeometry>
        </mxCell>
        <mxCell id="Pf5I1L1zVMzR1r-fhsG0-57" value="" style="endArrow=classic;html=1;rounded=0;exitX=0;exitY=0.3333333333333333;exitDx=0;exitDy=0;exitPerimeter=0;entryX=1;entryY=0.5;entryDx=0;entryDy=0;" edge="1" parent="1" source="Pf5I1L1zVMzR1r-fhsG0-1" target="Pf5I1L1zVMzR1r-fhsG0-26">
          <mxGeometry width="50" height="50" relative="1" as="geometry">
            <mxPoint x="390" y="270" as="sourcePoint" />
            <mxPoint x="440" y="220" as="targetPoint" />
          </mxGeometry>
        </mxCell>
        <mxCell id="Pf5I1L1zVMzR1r-fhsG0-58" value="" style="endArrow=classic;html=1;rounded=0;exitX=0;exitY=0.3333333333333333;exitDx=0;exitDy=0;exitPerimeter=0;entryX=1;entryY=0.5;entryDx=0;entryDy=0;" edge="1" parent="1" source="Pf5I1L1zVMzR1r-fhsG0-1" target="Pf5I1L1zVMzR1r-fhsG0-42">
          <mxGeometry width="50" height="50" relative="1" as="geometry">
            <mxPoint x="390" y="270" as="sourcePoint" />
            <mxPoint x="440" y="220" as="targetPoint" />
          </mxGeometry>
        </mxCell>
        <mxCell id="Pf5I1L1zVMzR1r-fhsG0-59" value="xóa" style="ellipse;whiteSpace=wrap;html=1;" vertex="1" parent="1">
          <mxGeometry x="520" y="460" width="70" height="40" as="geometry" />
        </mxCell>
        <mxCell id="Pf5I1L1zVMzR1r-fhsG0-60" value="tìm kiếm" style="ellipse;whiteSpace=wrap;html=1;" vertex="1" parent="1">
          <mxGeometry x="520" y="410" width="70" height="40" as="geometry" />
        </mxCell>
        <mxCell id="Pf5I1L1zVMzR1r-fhsG0-61" value="quản lý bình luận" style="ellipse;whiteSpace=wrap;html=1;" vertex="1" parent="1">
          <mxGeometry x="620" y="420" width="70" height="40" as="geometry" />
        </mxCell>
        <mxCell id="Pf5I1L1zVMzR1r-fhsG0-62" value="" style="endArrow=classic;html=1;rounded=0;exitX=0;exitY=0.5;exitDx=0;exitDy=0;entryX=1;entryY=0.5;entryDx=0;entryDy=0;" edge="1" parent="1" source="Pf5I1L1zVMzR1r-fhsG0-61" target="Pf5I1L1zVMzR1r-fhsG0-60">
          <mxGeometry width="50" height="50" relative="1" as="geometry">
            <mxPoint x="390" y="470" as="sourcePoint" />
            <mxPoint x="440" y="420" as="targetPoint" />
          </mxGeometry>
        </mxCell>
        <mxCell id="Pf5I1L1zVMzR1r-fhsG0-63" value="" style="endArrow=classic;html=1;rounded=0;exitX=0;exitY=0.5;exitDx=0;exitDy=0;entryX=1;entryY=0.5;entryDx=0;entryDy=0;" edge="1" parent="1" source="Pf5I1L1zVMzR1r-fhsG0-61" target="Pf5I1L1zVMzR1r-fhsG0-59">
          <mxGeometry width="50" height="50" relative="1" as="geometry">
            <mxPoint x="390" y="470" as="sourcePoint" />
            <mxPoint x="440" y="420" as="targetPoint" />
          </mxGeometry>
        </mxCell>
        <mxCell id="Pf5I1L1zVMzR1r-fhsG0-64" value="" style="endArrow=classic;html=1;rounded=0;exitX=0;exitY=0.3333333333333333;exitDx=0;exitDy=0;exitPerimeter=0;entryX=1;entryY=0.5;entryDx=0;entryDy=0;" edge="1" parent="1" source="Pf5I1L1zVMzR1r-fhsG0-1" target="Pf5I1L1zVMzR1r-fhsG0-61">
          <mxGeometry width="50" height="50" relative="1" as="geometry">
            <mxPoint x="390" y="470" as="sourcePoint" />
            <mxPoint x="440" y="420" as="targetPoint" />
          </mxGeometry>
        </mxCell>
        <mxCell id="Pf5I1L1zVMzR1r-fhsG0-65" value="biểu đồ" style="ellipse;whiteSpace=wrap;html=1;" vertex="1" parent="1">
          <mxGeometry x="520" y="510" width="70" height="40" as="geometry" />
        </mxCell>
        <mxCell id="Pf5I1L1zVMzR1r-fhsG0-66" value="thống kê" style="ellipse;whiteSpace=wrap;html=1;" vertex="1" parent="1">
          <mxGeometry x="630" y="510" width="70" height="40" as="geometry" />
        </mxCell>
        <mxCell id="Pf5I1L1zVMzR1r-fhsG0-67" value="" style="endArrow=classic;html=1;rounded=0;exitX=0;exitY=0.5;exitDx=0;exitDy=0;entryX=1;entryY=0.5;entryDx=0;entryDy=0;" edge="1" parent="1" source="Pf5I1L1zVMzR1r-fhsG0-66" target="Pf5I1L1zVMzR1r-fhsG0-65">
          <mxGeometry width="50" height="50" relative="1" as="geometry">
            <mxPoint x="390" y="570" as="sourcePoint" />
            <mxPoint x="440" y="520" as="targetPoint" />
          </mxGeometry>
        </mxCell>
        <mxCell id="Pf5I1L1zVMzR1r-fhsG0-68" value="" style="endArrow=classic;html=1;rounded=0;entryX=1;entryY=0.5;entryDx=0;entryDy=0;exitX=0;exitY=0.3333333333333333;exitDx=0;exitDy=0;exitPerimeter=0;" edge="1" parent="1" source="Pf5I1L1zVMzR1r-fhsG0-1" target="Pf5I1L1zVMzR1r-fhsG0-66">
          <mxGeometry width="50" height="50" relative="1" as="geometry">
            <mxPoint x="730" y="220" as="sourcePoint" />
            <mxPoint x="440" y="520" as="targetPoint" />
          </mxGeometry>
        </mxCell>
        <mxCell id="Pf5I1L1zVMzR1r-fhsG0-69" value="đơn hàng" style="ellipse;whiteSpace=wrap;html=1;" vertex="1" parent="1">
          <mxGeometry x="630" y="585" width="70" height="40" as="geometry" />
        </mxCell>
        <mxCell id="Pf5I1L1zVMzR1r-fhsG0-70" value="trạng thái" style="ellipse;whiteSpace=wrap;html=1;" vertex="1" parent="1">
          <mxGeometry x="520" y="620" width="70" height="40" as="geometry" />
        </mxCell>
        <mxCell id="Pf5I1L1zVMzR1r-fhsG0-71" value="tìm kiếm" style="ellipse;whiteSpace=wrap;html=1;" vertex="1" parent="1">
          <mxGeometry x="520" y="565" width="70" height="40" as="geometry" />
        </mxCell>
        <mxCell id="Pf5I1L1zVMzR1r-fhsG0-72" value="" style="endArrow=classic;html=1;rounded=0;exitX=0;exitY=0.5;exitDx=0;exitDy=0;entryX=1;entryY=0.5;entryDx=0;entryDy=0;" edge="1" parent="1" source="Pf5I1L1zVMzR1r-fhsG0-69" target="Pf5I1L1zVMzR1r-fhsG0-71">
          <mxGeometry width="50" height="50" relative="1" as="geometry">
            <mxPoint x="390" y="570" as="sourcePoint" />
            <mxPoint x="440" y="520" as="targetPoint" />
          </mxGeometry>
        </mxCell>
        <mxCell id="Pf5I1L1zVMzR1r-fhsG0-73" value="" style="endArrow=classic;html=1;rounded=0;exitX=0;exitY=0.5;exitDx=0;exitDy=0;entryX=1;entryY=0.5;entryDx=0;entryDy=0;" edge="1" parent="1" source="Pf5I1L1zVMzR1r-fhsG0-69" target="Pf5I1L1zVMzR1r-fhsG0-70">
          <mxGeometry width="50" height="50" relative="1" as="geometry">
            <mxPoint x="390" y="570" as="sourcePoint" />
            <mxPoint x="440" y="520" as="targetPoint" />
          </mxGeometry>
        </mxCell>
        <mxCell id="Pf5I1L1zVMzR1r-fhsG0-74" value="" style="endArrow=classic;html=1;rounded=0;entryX=1;entryY=0.5;entryDx=0;entryDy=0;exitX=0;exitY=0.3333333333333333;exitDx=0;exitDy=0;exitPerimeter=0;" edge="1" parent="1" source="Pf5I1L1zVMzR1r-fhsG0-1" target="Pf5I1L1zVMzR1r-fhsG0-69">
          <mxGeometry width="50" height="50" relative="1" as="geometry">
            <mxPoint x="390" y="570" as="sourcePoint" />
            <mxPoint x="440" y="520" as="targetPoint" />
          </mxGeometry>
        </mxCell>
        <mxCell id="Pf5I1L1zVMzR1r-fhsG0-75" value="xóa" style="ellipse;whiteSpace=wrap;html=1;" vertex="1" parent="1">
          <mxGeometry x="530" y="720" width="70" height="40" as="geometry" />
        </mxCell>
        <mxCell id="Pf5I1L1zVMzR1r-fhsG0-76" value="tìm kiếm" style="ellipse;whiteSpace=wrap;html=1;" vertex="1" parent="1">
          <mxGeometry x="530" y="670" width="70" height="40" as="geometry" />
        </mxCell>
        <mxCell id="Pf5I1L1zVMzR1r-fhsG0-77" value="quản lý liên hệ" style="ellipse;whiteSpace=wrap;html=1;" vertex="1" parent="1">
          <mxGeometry x="650" y="670" width="70" height="40" as="geometry" />
        </mxCell>
        <mxCell id="Pf5I1L1zVMzR1r-fhsG0-78" value="" style="endArrow=classic;html=1;rounded=0;exitX=0;exitY=0.5;exitDx=0;exitDy=0;entryX=1;entryY=0.5;entryDx=0;entryDy=0;" edge="1" parent="1" source="Pf5I1L1zVMzR1r-fhsG0-77" target="Pf5I1L1zVMzR1r-fhsG0-76">
          <mxGeometry width="50" height="50" relative="1" as="geometry">
            <mxPoint x="390" y="690" as="sourcePoint" />
            <mxPoint x="440" y="640" as="targetPoint" />
          </mxGeometry>
        </mxCell>
        <mxCell id="Pf5I1L1zVMzR1r-fhsG0-79" value="" style="endArrow=classic;html=1;rounded=0;exitX=0;exitY=0.5;exitDx=0;exitDy=0;entryX=1;entryY=0.5;entryDx=0;entryDy=0;" edge="1" parent="1" source="Pf5I1L1zVMzR1r-fhsG0-77" target="Pf5I1L1zVMzR1r-fhsG0-75">
          <mxGeometry width="50" height="50" relative="1" as="geometry">
            <mxPoint x="390" y="690" as="sourcePoint" />
            <mxPoint x="440" y="640" as="targetPoint" />
          </mxGeometry>
        </mxCell>
        <mxCell id="Pf5I1L1zVMzR1r-fhsG0-80" value="" style="endArrow=classic;html=1;rounded=0;entryX=1;entryY=0.5;entryDx=0;entryDy=0;exitX=0;exitY=0.3333333333333333;exitDx=0;exitDy=0;exitPerimeter=0;" edge="1" parent="1" source="Pf5I1L1zVMzR1r-fhsG0-1" target="Pf5I1L1zVMzR1r-fhsG0-77">
          <mxGeometry width="50" height="50" relative="1" as="geometry">
            <mxPoint x="390" y="690" as="sourcePoint" />
            <mxPoint x="440" y="640" as="targetPoint" />
          </mxGeometry>
        </mxCell>
        <mxCell id="Pf5I1L1zVMzR1r-fhsG0-81" value="" style="endArrow=none;html=1;rounded=0;exitX=0;exitY=0.3333333333333333;exitDx=0;exitDy=0;exitPerimeter=0;" edge="1" parent="1" source="Pf5I1L1zVMzR1r-fhsG0-2">
          <mxGeometry width="50" height="50" relative="1" as="geometry">
            <mxPoint x="390" y="370" as="sourcePoint" />
            <mxPoint x="80" y="800" as="targetPoint" />
          </mxGeometry>
        </mxCell>
        <mxCell id="Pf5I1L1zVMzR1r-fhsG0-82" value="" style="endArrow=none;html=1;rounded=0;exitX=1;exitY=0.3333333333333333;exitDx=0;exitDy=0;exitPerimeter=0;" edge="1" parent="1" source="Pf5I1L1zVMzR1r-fhsG0-1">
          <mxGeometry width="50" height="50" relative="1" as="geometry">
            <mxPoint x="390" y="250" as="sourcePoint" />
            <mxPoint x="780" y="800.800048828125" as="targetPoint" />
          </mxGeometry>
        </mxCell>
        <mxCell id="Pf5I1L1zVMzR1r-fhsG0-84" value="đăng xuất" style="ellipse;whiteSpace=wrap;html=1;" vertex="1" parent="1">
          <mxGeometry x="400" y="840" width="70" height="40" as="geometry" />
        </mxCell>
        <mxCell id="Pf5I1L1zVMzR1r-fhsG0-85" value="đăng nhập" style="ellipse;whiteSpace=wrap;html=1;" vertex="1" parent="1">
          <mxGeometry x="400" y="780" width="70" height="40" as="geometry" />
        </mxCell>
        <mxCell id="Pf5I1L1zVMzR1r-fhsG0-86" value="" style="endArrow=classic;html=1;rounded=0;entryX=0;entryY=0.5;entryDx=0;entryDy=0;" edge="1" parent="1" target="Pf5I1L1zVMzR1r-fhsG0-85">
          <mxGeometry width="50" height="50" relative="1" as="geometry">
            <mxPoint x="80" y="800" as="sourcePoint" />
            <mxPoint x="440" y="730" as="targetPoint" />
          </mxGeometry>
        </mxCell>
        <mxCell id="Pf5I1L1zVMzR1r-fhsG0-87" value="" style="endArrow=classic;html=1;rounded=0;entryX=1;entryY=0.5;entryDx=0;entryDy=0;" edge="1" parent="1" target="Pf5I1L1zVMzR1r-fhsG0-85">
          <mxGeometry width="50" height="50" relative="1" as="geometry">
            <mxPoint x="780" y="800" as="sourcePoint" />
            <mxPoint x="440" y="730" as="targetPoint" />
          </mxGeometry>
        </mxCell>
        <mxCell id="Pf5I1L1zVMzR1r-fhsG0-88" value="" style="endArrow=classic;html=1;rounded=0;exitX=0.5;exitY=1;exitDx=0;exitDy=0;entryX=0.5;entryY=0;entryDx=0;entryDy=0;" edge="1" parent="1" source="Pf5I1L1zVMzR1r-fhsG0-85" target="Pf5I1L1zVMzR1r-fhsG0-84">
          <mxGeometry width="50" height="50" relative="1" as="geometry">
            <mxPoint x="390" y="780" as="sourcePoint" />
            <mxPoint x="440" y="730" as="targetPoint" />
          </mxGeometry>
        </mxCell>
        <mxCell id="Pf5I1L1zVMzR1r-fhsG0-89" value="website bán đồ ăn nhanh Foody" style="text;html=1;align=center;verticalAlign=middle;resizable=0;points=[];autosize=1;strokeColor=none;fillColor=none;" vertex="1" parent="1">
          <mxGeometry x="165" y="658" width="190" height="30" as="geometry" />
        </mxCell>
      </root>
    </mxGraphModel>
  </diagram>
</mxfile>
